<?xml version="1.0" standalone="no"?>
<!DOCTYPE svg PUBLIC "-//W3C//DTD SVG 20010904//EN"
 "http://www.w3.org/TR/2001/REC-SVG-20010904/DTD/svg10.dtd">
<svg version="1.0" xmlns="http://www.w3.org/2000/svg"
 width="516.000000pt" height="516.000000pt" viewBox="0 0 516.000000 516.000000"
 preserveAspectRatio="xMidYMid meet">
<metadata>
Created by potrace 1.11, written by Peter Selinger 2001-2013
</metadata>
<g transform="translate(0.000000,516.000000) scale(0.100000,-0.100000)"
fill="#000000" stroke="none">
<path d="M1965 4119 c-396 -279 -736 -519 -755 -533 -19 -14 -204 -145 -410
-290 -206 -146 -444 -313 -527 -373 -84 -59 -153 -109 -153 -112 0 -5 107
-222 603 -1223 206 -416 402 -811 434 -877 41 -86 62 -120 73 -118 13 4 465
294 912 585 65 43 154 100 198 129 l81 51 -98 65 c-167 109 -475 311 -545 356
l-66 43 15 41 c8 23 48 139 90 257 81 234 187 536 196 560 3 8 12 35 20 60 8
25 29 82 45 128 17 45 28 82 25 82 -3 0 -1 6 5 13 5 6 15 28 20 47 6 19 35
105 65 190 30 85 92 261 137 390 104 299 219 631 227 650 41 115 132 384 131
385 -2 2 -327 -226 -723 -506z"/>
<path d="M2864 4614 c-3 -11 -12 -35 -19 -54 -8 -19 -48 -134 -90 -255 -42
-121 -91 -263 -110 -315 -18 -52 -68 -194 -110 -315 -113 -324 -143 -410 -180
-515 -18 -52 -45 -129 -59 -170 -14 -41 -35 -102 -47 -135 -24 -67 -85 -242
-135 -385 -42 -123 -153 -439 -193 -555 l-32 -89 27 -20 c29 -21 186 -124 491
-323 101 -65 182 -121 180 -125 -2 -6 -277 -186 -642 -421 -77 -49 -189 -122
-250 -162 -60 -39 -149 -97 -197 -128 -49 -31 -88 -58 -88 -61 0 -7 2347 -4
2357 3 7 5 279 470 410 701 35 62 153 264 163 280 18 30 135 235 139 245 2 6
9 17 16 25 7 8 26 40 42 70 17 30 91 159 165 286 74 128 138 238 142 245 3 8
14 28 24 44 11 17 54 90 97 164 l77 134 -38 36 c-37 35 -119 105 -443 379 -80
68 -168 143 -196 167 -90 76 -277 235 -395 334 -63 53 -117 98 -120 102 -3 3
-111 95 -240 205 -129 109 -246 208 -260 220 -14 12 -119 102 -235 199 -115
98 -218 185 -227 193 -16 13 -18 13 -24 -4z"/>
</g>
</svg>
